<svg width="65" height="62" viewBox="0 0 65 62" fill="none" xmlns="http://www.w3.org/2000/svg">
<path d="M7.21845 43V11.848H17.7785V43H7.21845Z" fill="#BCB096"/>
<path d="M30.6238 25H30.4238L30.8638 41H21.9837V12.68H34.4238L39.5437 27.92H39.7438L44.1838 12.68H57.0238V41H47.7838L48.0638 25.08L47.8238 25.04L42.5438 41H35.8238L30.6238 25Z" fill="#817A68"/>
<path d="M5.53059 55.808H4.59259V59H1.27459V49.088H5.53059C6.07192 49.088 6.57125 49.144 7.02859 49.256C7.48592 49.368 7.91059 49.5453 8.30259 49.788C8.70392 50.0307 9.01659 50.376 9.24059 50.824C9.47392 51.272 9.59059 51.804 9.59059 52.42C9.59059 53.008 9.47392 53.526 9.24059 53.974C9.01659 54.422 8.70859 54.7767 8.31659 55.038C7.93392 55.2993 7.50459 55.4953 7.02859 55.626C6.56192 55.7473 6.06259 55.808 5.53059 55.808ZM5.29259 51.678H4.59259V53.274H5.29259C5.57259 53.274 5.81059 53.204 6.00659 53.064C6.20259 52.924 6.30059 52.7187 6.30059 52.448C6.30059 51.9347 5.96459 51.678 5.29259 51.678ZM18.181 55.29C18.181 56.5127 17.7703 57.4833 16.949 58.202C16.1277 58.9207 15.1337 59.28 13.967 59.28C12.8003 59.28 11.811 58.9207 10.999 58.202C10.187 57.4833 9.78101 56.5127 9.78101 55.29C9.78101 54.0767 10.187 53.12 10.999 52.42C11.811 51.7107 12.8003 51.356 13.967 51.356C15.1337 51.356 16.1277 51.7107 16.949 52.42C17.7703 53.12 18.181 54.0767 18.181 55.29ZM14.835 54.436C14.6017 54.1933 14.3123 54.072 13.967 54.072C13.6217 54.072 13.337 54.1933 13.113 54.436C12.889 54.6787 12.777 54.9633 12.777 55.29C12.777 55.6353 12.889 55.9293 13.113 56.172C13.3463 56.4147 13.6357 56.536 13.981 56.536C14.3263 56.536 14.611 56.4147 14.835 56.172C15.0683 55.9293 15.185 55.6353 15.185 55.29C15.185 54.9633 15.0683 54.6787 14.835 54.436ZM19.3719 59V51.636H22.4799V52.476H22.5079C22.6759 52.168 22.9185 51.9207 23.2359 51.734C23.5532 51.538 23.9125 51.44 24.3139 51.44C24.5659 51.44 24.7712 51.4633 24.9299 51.51L24.6779 54.254C24.4819 54.198 24.2532 54.17 23.9919 54.17C23.5812 54.17 23.2452 54.2913 22.9839 54.534C22.7319 54.7767 22.6059 55.0753 22.6059 55.43V59H19.3719ZM28.6482 59.196C27.6682 59.196 26.9355 58.9813 26.4502 58.552C25.9742 58.1227 25.7362 57.4647 25.7362 56.578V53.946H24.7002V51.636H25.7222V49.984H28.8582V51.636H30.4542V53.946H28.8582V55.906C28.8582 56.242 28.9282 56.48 29.0682 56.62C29.2175 56.7507 29.4369 56.816 29.7262 56.816C29.9502 56.816 30.1462 56.788 30.3142 56.732V58.944C29.9129 59.112 29.3575 59.196 28.6482 59.196ZM36.5568 50.628C36.3514 50.544 36.1414 50.502 35.9268 50.502C35.3574 50.502 35.0728 50.8473 35.0728 51.538V51.636H36.6268V53.946H35.0728V59H31.8528V53.946H30.5928V51.636H31.8528V51.468C31.8528 49.1533 33.0008 47.996 35.2968 47.996C35.9221 47.996 36.4121 48.066 36.7668 48.206L36.5568 50.628ZM45.3744 55.29C45.3744 56.5127 44.9637 57.4833 44.1424 58.202C43.321 58.9207 42.327 59.28 41.1604 59.28C39.9937 59.28 39.0044 58.9207 38.1924 58.202C37.3804 57.4833 36.9744 56.5127 36.9744 55.29C36.9744 54.0767 37.3804 53.12 38.1924 52.42C39.0044 51.7107 39.9937 51.356 41.1604 51.356C42.327 51.356 43.321 51.7107 44.1424 52.42C44.9637 53.12 45.3744 54.0767 45.3744 55.29ZM42.0284 54.436C41.795 54.1933 41.5057 54.072 41.1604 54.072C40.815 54.072 40.5304 54.1933 40.3064 54.436C40.0824 54.6787 39.9704 54.9633 39.9704 55.29C39.9704 55.6353 40.0824 55.9293 40.3064 56.172C40.5397 56.4147 40.829 56.536 41.1744 56.536C41.5197 56.536 41.8044 56.4147 42.0284 56.172C42.2617 55.9293 42.3784 55.6353 42.3784 55.29C42.3784 54.9633 42.2617 54.6787 42.0284 54.436ZM46.5652 59V48.416H49.8692V59H46.5652ZM51.3644 59V51.636H54.5984V59H51.3644ZM51.3084 49.508C51.3084 49.06 51.4764 48.6727 51.8124 48.346C52.1484 48.0193 52.5451 47.856 53.0024 47.856C53.4411 47.856 53.8237 48.0193 54.1504 48.346C54.4864 48.6727 54.6544 49.06 54.6544 49.508C54.6544 49.9653 54.4911 50.3527 54.1644 50.67C53.8377 50.9873 53.4504 51.146 53.0024 51.146C52.5357 51.146 52.1344 50.9873 51.7984 50.67C51.4717 50.3527 51.3084 49.9653 51.3084 49.508ZM64.2005 55.29C64.2005 56.5127 63.7899 57.4833 62.9685 58.202C62.1472 58.9207 61.1532 59.28 59.9865 59.28C58.8199 59.28 57.8305 58.9207 57.0185 58.202C56.2065 57.4833 55.8005 56.5127 55.8005 55.29C55.8005 54.0767 56.2065 53.12 57.0185 52.42C57.8305 51.7107 58.8199 51.356 59.9865 51.356C61.1532 51.356 62.1472 51.7107 62.9685 52.42C63.7899 53.12 64.2005 54.0767 64.2005 55.29ZM60.8545 54.436C60.6212 54.1933 60.3319 54.072 59.9865 54.072C59.6412 54.072 59.3565 54.1933 59.1325 54.436C58.9085 54.6787 58.7965 54.9633 58.7965 55.29C58.7965 55.6353 58.9085 55.9293 59.1325 56.172C59.3659 56.4147 59.6552 56.536 60.0005 56.536C60.3459 56.536 60.6305 56.4147 60.8545 56.172C61.0879 55.9293 61.2045 55.6353 61.2045 55.29C61.2045 54.9633 61.0879 54.6787 60.8545 54.436Z" fill="#CBCBCB"/>
</svg>
